<svg class="navigation__logo" data-name="Layer 1" xmlns="http://www.w3.org/2000/svg" viewBox="0 0 935.99 580.72"><circle cx="698.74" cy="171.51" r="26.41" fill="#ea7200"/><path d="M698.74 224.36a26.4 26.4 0 00-26.41 26.41v158.44a26.41 26.41 0 1052.82 0V250.74a26.42 26.42 0 00-26.41-26.38zM909.57 363.03a26.28 26.28 0 00-17.79 6.93 52.78 52.78 0 01-34.51 12.86h-.1a52.88 52.88 0 01-52.78-52.74v-.18a52.9 52.9 0 0152.77-52.74h.12a52.75 52.75 0 0134.83 13.2 26.41 26.41 0 1034.9-39.64l-.22-.18c-.4-.35-.82-.68-1.25-1a105.45 105.45 0 00-66.84-25.18c-.5 0-1-.08-1.5-.08h-.3a105.75 105.75 0 00-105.32 105.34v.74A105.75 105.75 0 00856.86 435.6h.35a10.26 10.26 0 001.55-.08 105.54 105.54 0 0067.57-25.68 26.41 26.41 0 00-16.75-46.83z" fill="#002856"/><circle cx="13.14" cy="171.55" r="13.14" fill="#002856"/><circle cx="92.35" cy="171.55" r="19.77" fill="#002856"/><circle cx="13.14" cy="250.76" r="13.14" fill="#002856"/><circle cx="92.35" cy="250.76" r="19.77" fill="#002856"/><circle cx="250.76" cy="13.14" r="13.14" fill="#002856"/><circle cx="409.18" cy="13.14" r="13.14" fill="#002856"/><circle cx="171.56" cy="488.38" r="19.77" fill="#002856"/><circle cx="250.76" cy="488.38" r="19.77" fill="#002856"/><circle cx="409.18" cy="488.38" r="19.77" fill="#002856"/><circle cx="13.14" cy="409.17" r="13.14" fill="#002856"/><circle cx="92.35" cy="488.38" r="13.14" fill="#002856"/><circle cx="92.35" cy="409.17" r="19.77" fill="#002856"/><circle cx="13.14" cy="329.96" r="13.14" fill="#002856"/><circle cx="567.59" cy="171.55" r="13.14" fill="#002856"/><circle cx="567.59" cy="250.76" r="13.14" fill="#002856"/><circle cx="567.59" cy="409.17" r="13.14" fill="#002856"/><circle cx="567.59" cy="329.96" r="13.14" fill="#002856"/><circle cx="92.35" cy="329.96" r="19.77" fill="#002856"/><circle cx="488.38" cy="171.55" r="19.77" fill="#002856"/><circle cx="488.38" cy="250.76" r="19.77" fill="#002856"/><circle cx="488.38" cy="409.17" r="19.77" fill="#002856"/><circle cx="488.38" cy="329.96" r="19.77" fill="#002856"/><circle cx="250.76" cy="567.58" r="13.14" fill="#002856"/><circle cx="171.56" cy="13.14" r="13.14" fill="#002856"/><circle cx="171.56" cy="567.58" r="13.14" fill="#002856"/><circle cx="171.56" cy="92.34" r="19.77" fill="#002856"/><circle cx="250.76" cy="92.34" r="19.77" fill="#002856"/><circle cx="409.18" cy="92.34" r="19.77" fill="#002856"/><circle cx="92.35" cy="92.34" r="13.14" fill="#002856"/><circle cx="488.38" cy="92.34" r="13.14" fill="#002856"/><circle cx="329.97" cy="92.34" r="19.77" fill="#002856"/><circle cx="329.97" cy="13.14" r="13.14" fill="#002856"/><circle cx="329.97" cy="488.38" r="19.77" fill="#002856"/><circle cx="329.97" cy="567.58" r="13.14" fill="#002856"/><circle cx="409.18" cy="567.58" r="13.14" fill="#002856"/><circle cx="488.38" cy="488.38" r="13.14" fill="#002856"/><circle cx="171.56" cy="171.55" r="26.4" fill="#002856"/><circle cx="250.76" cy="171.55" r="26.4" fill="#002856"/><circle cx="329.97" cy="171.55" r="26.4" fill="#002856"/><circle cx="409.18" cy="171.55" r="26.4" fill="#002856"/><circle cx="409.18" cy="250.76" r="26.4" fill="#002856"/><circle cx="329.97" cy="250.76" r="26.42" fill="#ea7200"/><circle cx="250.76" cy="250.76" r="26.42" fill="#ea7200"/><circle cx="329.97" cy="329.96" r="26.42" fill="#ea7200"/><circle cx="409.18" cy="329.96" r="26.4" fill="#002856"/><circle cx="250.76" cy="409.17" r="26.4" fill="#002856"/><circle cx="171.56" cy="250.76" r="26.4" fill="#002856"/><circle cx="171.56" cy="329.96" r="26.4" fill="#002856"/><circle cx="171.56" cy="409.17" r="26.4" fill="#002856"/><circle cx="329.97" cy="409.17" r="26.4" fill="#002856"/><circle cx="409.18" cy="409.17" r="26.4" fill="#002856"/></svg>